#define gnusk_width 16
#define gnusk_height 16
static unsigned char gnusk_bits[] = {
   0x00, 0x00, 0x00, 0x00, 0x00, 0x00, 0x00, 0x00, 0x00, 0x00, 0x00, 0x00,
   0x00, 0x00, 0x1c, 0x00, 0xc6, 0x2b, 0xd6, 0x2f, 0x76, 0x3f, 0x7e, 0x3a,
   0x00, 0x00, 0x00, 0x00, 0x00, 0x00, 0x00, 0x00 };
